# xmcd
#
# Track frame offsets:
#	150
#	12785
#	21800
#	43563
#	61488
#	82028
#	99258
#	111975
#	122448
#	135188
#	145705
#	159533
#	172233
#	187048
#	198848
#	212433
#
# Disc length: 2963 seconds
#
# Revision: 2
# Processed by: cddbd v1.5.1PL2 Copyright (c) Steve Scherf et al.
# Submitted via: audiograbber 1.83.01
#
DISCID=d00b9110
DTITLE=Jonny Hill - LP- Country Songs (LC 8367)
DYEAR=1994
DGENRE=Country
TTITLE0=500 Meilen von zu Haus (500 Miles away from Home)
TTITLE1=Ein Ring aus Feuer (Ring of Fire)
TTITLE2=Ruf Teddyb‰r Eins Vier 
TTITLE3=Der alte Fluﬂ (The Banks of the Ohio)
TTITLE4=Der Feigling (The Coward of the County)
TTITLE5=Geisterreiter (Riders in the Sky)
TTITLE6=Green Green Grass Of Home (Deutsche Version)
TTITLE7=Heute Nacht da brauch' ich dich (Help me make it through the Night)
TTITLE8=Kann Liebe alles verzeihen (Some broken Hearts never ment)
TTITLE9=Kˆnig der Landstraﬂe (King of the Road)
TTITLE10=Laﬂ uns auseinander gehn (Please Release me)
TTITLE11=Clementine (My Darling Clementine)
TTITLE12=London (Jackson)
TTITLE13=Oh, warum nicht Oh, Lonesome me)
TTITLE14=Ruby, mach's mir doch nicht so schwer (Ruby, don't take your Love)
TTITLE15=Susanna (Oh, Susanna)
EXTD=
EXTT0=
EXTT1=
EXTT2=
EXTT3=
EXTT4=
EXTT5=
EXTT6=
EXTT7=
EXTT8=
EXTT9=
EXTT10=
EXTT11=
EXTT12=
EXTT13=
EXTT14=
EXTT15=
PLAYORDER=
